<svg width="2001" height="2000" viewBox="0 0 2001 2000" fill="none" xmlns="http://www.w3.org/2000/svg">
<path d="M1920.2 1608.6H82.3143C81.9657 1608.6 81.6314 1608.46 81.3849 1608.22C81.1385 1607.97 81 1607.64 81 1607.29C81 1606.94 81.1385 1606.61 81.3849 1606.36C81.6314 1606.11 81.9657 1605.97 82.3143 1605.97H1920.2C1920.54 1605.97 1920.88 1606.11 1921.12 1606.36C1921.37 1606.61 1921.51 1606.94 1921.51 1607.29C1921.51 1607.64 1921.37 1607.97 1921.12 1608.22C1920.88 1608.46 1920.54 1608.6 1920.2 1608.6Z" fill="#263238"/>
<path d="M1258.87 1131.31C1258.62 1131.31 1258.37 1131.23 1258.16 1131.09C1257.95 1130.95 1257.79 1130.75 1257.69 1130.52C1257.55 1130.2 1257.53 1129.84 1257.66 1129.52C1257.78 1129.19 1258.03 1128.93 1258.34 1128.78L1262.39 1127C1262.55 1126.93 1262.72 1126.89 1262.9 1126.89C1263.07 1126.88 1263.24 1126.91 1263.4 1126.98C1263.56 1127.04 1263.71 1127.14 1263.83 1127.26C1263.96 1127.38 1264.06 1127.52 1264.13 1127.68C1264.26 1128 1264.27 1128.36 1264.15 1128.68C1264.02 1129 1263.78 1129.27 1263.47 1129.41L1259.42 1131.2C1259.25 1131.28 1259.06 1131.31 1258.87 1131.31V1131.31Z" fill="#040607"/>
<path d="M1343.32 1330.58V1496.6H694.274V1330.58H572.281V1573.23C572.281 1582.29 575.881 1590.98 582.29 1597.39C588.698 1603.8 597.39 1607.4 606.453 1607.4H660.313C664.8 1607.4 669.244 1606.51 673.389 1604.8C677.535 1603.08 681.302 1600.56 684.476 1597.39C687.649 1594.22 690.166 1590.45 691.883 1586.3C693.6 1582.16 694.484 1577.71 694.484 1573.23V1562.03H753.601L781.28 1544.42H1254.03L1289.33 1564.53H1343.43V1573.23C1343.43 1582.29 1347.03 1590.98 1353.44 1597.39C1359.85 1603.8 1368.54 1607.4 1377.6 1607.4H1431.28C1440.34 1607.4 1449.03 1603.8 1455.44 1597.39C1461.85 1590.98 1465.45 1582.29 1465.45 1573.23V1330.58H1343.32Z" fill="#040607"/>
<path d="M1431.28 1608.61H1377.42C1372.76 1608.62 1368.15 1607.71 1363.85 1605.94C1359.54 1604.16 1355.63 1601.56 1352.33 1598.27C1349.03 1594.99 1346.41 1591.08 1344.62 1586.79C1342.84 1582.49 1341.91 1577.88 1341.9 1573.22V1565.84H1289.33C1289.11 1565.84 1288.9 1565.79 1288.7 1565.68L1253.77 1545.73H781.464L754.1 1563.05C753.889 1563.19 753.642 1563.26 753.391 1563.26H695.562V1573.15C695.548 1582.53 691.816 1591.52 685.184 1598.15C678.551 1604.78 669.56 1608.51 660.181 1608.53H606.348C596.968 1608.51 587.977 1604.78 581.345 1598.15C574.713 1591.52 570.981 1582.53 570.967 1573.15V1330.58C570.967 1330.23 571.105 1329.9 571.352 1329.65C571.598 1329.4 571.933 1329.27 572.281 1329.27H694.274C694.622 1329.27 694.957 1329.4 695.203 1329.65C695.45 1329.9 695.588 1330.23 695.588 1330.58V1495.29H1341.9V1330.58C1341.9 1330.23 1342.04 1329.9 1342.29 1329.65C1342.54 1329.4 1342.87 1329.27 1343.22 1329.27H1465.45C1465.8 1329.27 1466.13 1329.4 1466.38 1329.65C1466.62 1329.9 1466.76 1330.23 1466.76 1330.58V1573.22C1466.76 1577.88 1465.83 1582.48 1464.05 1586.78C1462.26 1591.08 1459.64 1594.98 1456.35 1598.26C1453.05 1601.55 1449.14 1604.15 1444.84 1605.93C1440.54 1607.7 1435.93 1608.61 1431.28 1608.61V1608.61ZM1289.6 1563.21H1343.32C1343.67 1563.21 1344.01 1563.35 1344.25 1563.59C1344.5 1563.84 1344.64 1564.18 1344.64 1564.52V1573.22C1344.65 1581.91 1348.11 1590.24 1354.26 1596.38C1360.4 1602.52 1368.73 1605.97 1377.42 1605.98H1431.28C1439.96 1605.97 1448.29 1602.52 1454.44 1596.38C1460.58 1590.24 1464.04 1581.91 1464.05 1573.22V1331.89H1344.53V1496.6C1344.53 1496.95 1344.39 1497.28 1344.15 1497.53C1343.9 1497.78 1343.57 1497.92 1343.22 1497.92H694.274C693.925 1497.92 693.591 1497.78 693.344 1497.53C693.098 1497.28 692.959 1496.95 692.959 1496.6V1331.89H573.595V1573.22C573.602 1581.91 577.055 1590.24 583.196 1596.38C589.337 1602.52 597.663 1605.97 606.348 1605.98H660.207C668.892 1605.97 677.218 1602.52 683.359 1596.38C689.5 1590.24 692.952 1581.91 692.959 1573.22V1562.03C692.959 1561.68 693.098 1561.34 693.344 1561.1C693.591 1560.85 693.925 1560.71 694.274 1560.71H753.101L780.439 1543.31C780.647 1543.17 780.896 1543.09 781.149 1543.1H1254.03C1254.25 1543.1 1254.47 1543.15 1254.66 1543.26L1289.6 1563.21Z" fill="#040607"/>
<path d="M1440.19 1211.08C1435.67 1202.04 1402.68 1167.61 1396.06 1160.72C1395.3 1159.93 1394.65 1159.05 1394.11 1158.09C1386.04 1142.69 1317.59 966.206 1305.58 943.889C1283.58 902.83 1265.89 909.007 1242.36 906.011C1241.68 906.011 1241 906.011 1240.29 906.011L1061.7 896.995C1032.29 895.51 1002.82 895.51 973.405 896.995C925.074 899.413 876.735 901.831 828.386 904.25C788.038 906.3 749.161 903.698 727.002 943.836C714.7 966.074 646.541 1142.56 638.471 1158.01C637.941 1158.97 637.287 1159.86 636.526 1160.64C629.849 1167.56 596.913 1201.96 592.392 1211.01C587.371 1221.07 567.236 1258.79 567.236 1266.21C567.236 1272.72 571.915 1380.34 592.602 1464.66C595.547 1477.08 601.738 1488.48 610.541 1497.72C619.345 1506.95 630.444 1513.68 642.703 1517.21C643.932 1517.61 645.201 1517.87 646.488 1518H803.178C805.255 1518 807.296 1517.45 809.095 1516.41C810.894 1515.37 812.389 1513.88 813.43 1512.08L850.493 1448.05C851.226 1446.79 852.189 1445.67 853.332 1444.77C869.034 1432.63 888.343 1426.09 908.19 1426.18H1124.55C1144.35 1426.13 1163.6 1432.67 1179.28 1444.77C1180.4 1445.68 1181.36 1446.8 1182.09 1448.05L1219.15 1512.08C1220.19 1513.88 1221.69 1515.37 1223.49 1516.41C1225.29 1517.45 1227.33 1518 1229.4 1518H1386.09C1387.38 1517.87 1388.65 1517.61 1389.88 1517.21C1402.11 1513.7 1413.19 1507 1421.99 1497.81C1430.8 1488.61 1437 1477.25 1439.98 1464.87C1460.67 1380.55 1465.35 1272.99 1465.35 1266.42C1465.45 1258.87 1445.21 1221.15 1440.19 1211.08ZM671.617 1130.57C703.161 1068.96 762.172 930.01 762.172 930.01C1050.24 901.095 1271.59 928.748 1271.59 928.748L1357.13 1130.57C1162.19 1111.72 671.617 1130.57 671.617 1130.57Z" fill="#92E3A9"/>
<path d="M1386.09 1519.31H1229.4C1227.1 1519.31 1224.83 1518.71 1222.83 1517.55C1220.83 1516.4 1219.17 1514.74 1218.02 1512.74L1180.96 1448.71C1180.28 1447.58 1179.38 1446.59 1178.33 1445.79C1162.88 1433.85 1143.89 1427.38 1124.36 1427.39H908.19C888.659 1427.37 869.675 1433.84 854.225 1445.79C853.209 1446.59 852.36 1447.58 851.728 1448.71L814.639 1512.74C813.485 1514.74 811.826 1516.4 809.828 1517.55C807.83 1518.71 805.564 1519.31 803.257 1519.31H646.488C645.072 1519.22 643.675 1518.94 642.335 1518.47C629.894 1514.87 618.625 1508.04 609.667 1498.68C600.709 1489.33 594.378 1477.78 591.314 1465.19C569.812 1377.47 565.922 1267.39 565.922 1266.42C565.922 1260.29 577.225 1237.77 587.818 1217.16L591.235 1210.51C595.704 1201.52 626.3 1169.42 635.579 1159.8C636.261 1159.09 636.837 1158.28 637.288 1157.41C640.705 1150.86 654.952 1115.35 671.46 1074.14C693.619 1018.78 718.774 956.007 725.845 943.206C746.243 906.274 780.493 904.907 816.768 903.435C820.606 903.278 824.443 903.146 828.307 902.936L927.852 897.942L973.326 895.681C1002.66 894.209 1032.42 894.235 1061.75 895.681L1240.36 904.697C1240.61 904.723 1240.86 904.723 1241.1 904.697C1241.58 904.631 1242.07 904.631 1242.55 904.697C1246.2 905.17 1249.75 905.407 1253.06 905.643C1271.67 906.905 1287.73 907.983 1306.66 943.258C1313.39 955.797 1337.75 1016.49 1359.23 1070.04C1375.89 1111.51 1391.61 1150.71 1395.16 1157.44C1395.61 1158.32 1396.18 1159.12 1396.87 1159.83C1403.47 1166.69 1436.61 1201.31 1441.21 1210.53L1444.63 1217.18C1455.15 1237.79 1466.53 1260.32 1466.53 1266.44C1466.53 1267.42 1462.61 1377.53 1441.14 1465.22C1438.08 1477.77 1431.77 1489.3 1422.83 1498.63C1413.9 1507.96 1402.66 1514.77 1390.25 1518.37C1388.91 1518.87 1387.51 1519.19 1386.09 1519.31V1519.31ZM908.19 1424.87H1124.55C1144.67 1424.83 1164.23 1431.47 1180.17 1443.74C1181.43 1444.76 1182.49 1445.99 1183.3 1447.39L1220.36 1511.43C1221.29 1513.03 1222.61 1514.36 1224.22 1515.28C1225.82 1516.2 1227.63 1516.69 1229.48 1516.68H1386.17C1387.33 1516.56 1388.48 1516.32 1389.59 1515.95C1401.6 1512.49 1412.47 1505.91 1421.12 1496.88C1429.76 1487.86 1435.86 1476.71 1438.8 1464.56C1460.22 1377.13 1464.11 1267.42 1464.11 1266.42C1464.11 1260.4 1449.52 1232.01 1442.5 1218.37C1441.08 1215.58 1439.87 1213.27 1439.09 1211.66C1434.64 1202.81 1401.73 1168.42 1395.19 1161.72C1394.34 1160.83 1393.61 1159.83 1393.03 1158.75C1389.43 1151.89 1374.4 1114.46 1356.99 1071.09C1335.52 1017.62 1311.18 957.006 1304.42 944.573C1286.21 910.585 1271.57 909.586 1252.98 908.325C1249.54 908.088 1245.94 907.851 1242.2 907.378C1241.92 907.353 1241.64 907.353 1241.36 907.378C1240.99 907.419 1240.61 907.419 1240.23 907.378L1061.62 898.362C1032.25 896.89 1002.83 896.89 973.458 898.362L927.983 900.623L828.439 905.617C824.575 905.827 820.711 905.959 816.873 906.117C781.361 907.536 747.82 908.877 728.132 944.52C721.14 957.19 696.037 1019.86 673.904 1075.16C657.37 1116.4 643.097 1152.02 639.733 1158.67C639.154 1159.77 638.429 1160.79 637.577 1161.69C631.006 1168.5 598.148 1202.86 593.68 1211.64C592.891 1213.24 591.682 1215.55 590.263 1218.34C583.244 1231.98 568.656 1260.4 568.656 1266.39C568.656 1267.36 572.546 1377.11 593.969 1464.53C596.903 1476.68 602.998 1487.83 611.636 1496.85C620.274 1505.88 631.147 1512.46 643.15 1515.92C644.268 1516.29 645.422 1516.54 646.593 1516.66H803.283C805.131 1516.66 806.948 1516.18 808.549 1515.25C810.15 1514.33 811.48 1513 812.404 1511.4L849.362 1447.39C850.177 1446 851.236 1444.76 852.49 1443.74C868.452 1431.45 888.045 1424.81 908.19 1424.87V1424.87ZM1357.15 1131.96C1164.48 1113.33 676.717 1131.78 671.801 1131.96C671.573 1131.97 671.346 1131.92 671.143 1131.82C670.94 1131.71 670.768 1131.55 670.645 1131.36C670.523 1131.17 670.459 1130.94 670.459 1130.72C670.459 1130.49 670.523 1130.26 670.645 1130.07C701.531 1069.09 760.411 930.878 760.989 929.564C761.084 929.349 761.234 929.164 761.423 929.026C761.612 928.887 761.834 928.801 762.067 928.775C1046.98 900.15 1269.57 927.25 1271.8 927.513C1272.03 927.548 1272.24 927.638 1272.42 927.776C1272.6 927.914 1272.74 928.095 1272.83 928.302L1358.36 1130.15C1358.47 1130.35 1358.53 1130.57 1358.53 1130.79C1358.53 1131.02 1358.47 1131.24 1358.36 1131.44C1358.22 1131.62 1358.04 1131.77 1357.83 1131.86C1357.61 1131.95 1357.38 1131.99 1357.15 1131.96V1131.96ZM763.092 931.325C758.492 942.076 703.975 1069.67 673.72 1129.26C709.863 1127.92 1167.47 1111.46 1355 1129.26L1270.62 930.142C1256.27 928.249 1039.04 903.619 763.118 931.246L763.092 931.325Z" fill="#040607"/>
<path d="M810.011 1518L801.205 1538.11H1228.88L1222.59 1518L1181.09 1446.29C1181.09 1446.29 1164.74 1427.42 1124.49 1426.18C1084.25 1424.95 908.136 1426.18 908.136 1426.18C887.434 1425.65 867.271 1432.82 851.543 1446.29L810.011 1518Z" fill="#787878"/>
<path d="M1228.88 1539.4H801.205C800.988 1539.4 800.773 1539.35 800.58 1539.25C800.387 1539.15 800.223 1539 800.101 1538.82C799.998 1538.62 799.943 1538.41 799.943 1538.19C799.943 1537.97 799.998 1537.75 800.101 1537.56L808.907 1517.45V1517.32L850.36 1445.63C850.423 1445.5 850.513 1445.39 850.622 1445.29C866.658 1431.66 887.145 1424.39 908.189 1424.87C909.845 1424.87 1084.67 1423.61 1124.47 1424.87C1164.84 1426.13 1181.35 1444.66 1182.03 1445.45L1223.62 1517.34C1223.62 1517.43 1223.62 1517.52 1223.62 1517.6L1229.9 1537.74C1229.96 1537.93 1229.98 1538.14 1229.95 1538.34C1229.92 1538.54 1229.84 1538.73 1229.72 1538.9C1229.51 1539.16 1229.21 1539.34 1228.88 1539.4V1539.4ZM803.203 1536.77H1227.09L1221.36 1518.5L1179.93 1446.92C1179.93 1446.92 1163.53 1428.68 1124.42 1427.47C1084.65 1426.21 909.897 1427.47 908.136 1427.47C887.825 1427.02 868.051 1434.01 852.541 1447.13L811.167 1518.55L803.203 1536.77Z" fill="#040607"/>
<path d="M846.471 1279.01C846.471 1279.01 880.432 1339.46 890.5 1349.45C900.567 1359.44 911.896 1359.49 925.723 1360.76C939.549 1362.02 1129.49 1360.76 1129.49 1360.76C1129.49 1360.76 1144.58 1358.13 1152.15 1346.93C1159.72 1335.73 1184.85 1279.01 1184.85 1279.01H846.471Z" fill="#040607"/>
<path d="M984.733 1362.65C954.504 1362.65 930.295 1362.49 925.616 1362.07L921.804 1361.76C909.581 1360.73 899.041 1359.84 889.578 1350.37C879.51 1340.31 846.732 1282.03 845.339 1279.64C845.223 1279.44 845.162 1279.22 845.162 1278.99C845.162 1278.77 845.223 1278.55 845.339 1278.35C845.456 1278.15 845.625 1277.98 845.828 1277.86C846.031 1277.75 846.262 1277.69 846.495 1277.69H1184.85C1185.07 1277.7 1185.28 1277.76 1185.47 1277.86C1185.66 1277.97 1185.83 1278.12 1185.95 1278.3C1186.05 1278.49 1186.11 1278.7 1186.11 1278.92C1186.11 1279.13 1186.05 1279.34 1185.95 1279.53C1184.93 1281.85 1160.66 1336.36 1153.15 1347.67C1145.63 1358.97 1130.28 1361.97 1129.49 1362.07C1124.47 1362.1 1043.3 1362.65 984.733 1362.65ZM848.73 1280.32C854.67 1290.84 882.638 1339.7 891.444 1348.51C900.25 1357.31 909.844 1358.1 922.015 1359.02L925.852 1359.34C939.468 1360.57 1127.6 1359.34 1129.49 1359.34C1129.49 1359.34 1143.92 1356.71 1151.04 1346.19C1157.67 1336.26 1178.41 1290.15 1182.82 1280.32H848.73Z" fill="#040607"/>
<path d="M880.168 1287.21C880.168 1287.21 907.374 1335.55 915.444 1343.62C923.513 1351.69 932.556 1351.66 943.648 1352.69C954.741 1353.71 1106.83 1352.69 1106.83 1352.69C1106.83 1352.69 1118.9 1350.66 1124.94 1341.59C1130.99 1332.53 1151.23 1287.21 1151.23 1287.21H880.168Z" fill="#787878"/>
<path d="M990.883 1354.45C966.673 1354.45 947.274 1354.32 943.568 1353.98L940.519 1353.74C930.688 1352.9 922.119 1352.19 914.549 1344.54C906.452 1336.44 880.193 1289.84 879.089 1287.84C878.973 1287.65 878.912 1287.42 878.912 1287.2C878.912 1286.97 878.973 1286.75 879.089 1286.55C879.204 1286.35 879.368 1286.19 879.566 1286.07C879.765 1285.96 879.99 1285.9 880.219 1285.89H1151.15C1151.37 1285.89 1151.59 1285.94 1151.78 1286.05C1151.97 1286.16 1152.14 1286.31 1152.25 1286.5C1152.36 1286.69 1152.41 1286.9 1152.41 1287.12C1152.41 1287.33 1152.36 1287.55 1152.25 1287.73C1151.44 1289.6 1132.01 1333.26 1125.97 1342.33C1119.92 1351.4 1107.57 1353.9 1106.96 1353.98C1102.7 1354 1037.8 1354.45 990.883 1354.45ZM882.427 1288.52C887.684 1297.64 909.449 1335.84 916.362 1342.7C923.275 1349.56 931.003 1350.3 940.703 1351.11L943.752 1351.37C954.634 1352.37 1105.28 1351.37 1106.72 1351.37C1106.72 1351.37 1118.13 1349.35 1123.78 1340.86C1129.04 1332.97 1145.18 1297.12 1149.04 1288.52H882.427Z" fill="#040607"/>
<path d="M1157.56 1496.6L1150.02 1475.84C1147.7 1469.42 1143.43 1463.9 1137.81 1460.04C1132.19 1456.17 1125.5 1454.17 1118.69 1454.31L914.418 1456.36C907.396 1456.5 900.606 1458.9 895.056 1463.2C889.507 1467.51 885.493 1473.49 883.611 1480.25L878.512 1496.6H1157.56Z" fill="#040607"/>
<path d="M1157.56 1497.92H878.513C878.309 1497.92 878.106 1497.87 877.923 1497.78C877.74 1497.69 877.581 1497.56 877.462 1497.39C877.34 1497.23 877.257 1497.04 877.22 1496.84C877.184 1496.64 877.195 1496.43 877.252 1496.23L882.351 1479.86C884.346 1472.84 888.532 1466.65 894.297 1462.19C900.062 1457.72 907.104 1455.22 914.394 1455.04L1118.69 1452.99C1125.78 1452.85 1132.73 1454.93 1138.58 1458.95C1144.42 1462.97 1148.85 1468.72 1151.26 1475.39L1158.8 1496.15C1158.87 1496.35 1158.89 1496.57 1158.86 1496.78C1158.83 1496.99 1158.76 1497.19 1158.64 1497.36C1158.52 1497.53 1158.35 1497.67 1158.17 1497.77C1157.98 1497.86 1157.77 1497.91 1157.56 1497.92V1497.92ZM880.301 1495.29H1155.7L1148.78 1476.31C1146.58 1470.14 1142.48 1464.83 1137.09 1461.12C1131.69 1457.41 1125.26 1455.5 1118.71 1455.65L914.42 1457.7C907.695 1457.87 901.2 1460.19 895.885 1464.31C890.569 1468.43 886.711 1474.15 884.875 1480.62L880.301 1495.29Z" fill="#040607"/>
<path d="M875.385 1506.67L869.129 1526.8H1168.5L1161.19 1506.67H875.385Z" fill="#040607"/>
<path d="M1168.42 1528.12H869.127C868.92 1528.12 868.717 1528.07 868.534 1527.97C868.351 1527.88 868.193 1527.74 868.075 1527.57C867.945 1527.41 867.857 1527.22 867.82 1527.02C867.783 1526.81 867.799 1526.61 867.865 1526.41L874.016 1506.28C874.1 1506.01 874.268 1505.77 874.495 1505.61C874.722 1505.44 874.997 1505.35 875.278 1505.36H1161.19C1161.46 1505.36 1161.72 1505.44 1161.94 1505.59C1162.16 1505.75 1162.33 1505.97 1162.42 1506.22L1169.73 1526.25C1169.8 1526.45 1169.82 1526.67 1169.79 1526.88C1169.75 1527.09 1169.67 1527.29 1169.55 1527.46C1169.44 1527.66 1169.27 1527.83 1169.07 1527.94C1168.87 1528.06 1168.65 1528.12 1168.42 1528.12V1528.12ZM870.835 1525.49H1166.6L1160.27 1507.98H876.382L870.835 1525.49Z" fill="#040607"/>
<path d="M1394.9 1159.51C1394.9 1159.51 1401.18 1110.46 1412.51 1110.46C1423.84 1110.46 1474.15 1124.29 1475.39 1134.36C1476.62 1144.42 1465.45 1155.62 1455.28 1158.25C1445.1 1160.88 1423.73 1163.3 1423.73 1163.3L1418.69 1182.14L1394.9 1159.51Z" fill="#040607"/>
<path d="M1418.79 1183.46C1418.46 1183.47 1418.14 1183.34 1417.9 1183.12L1394 1160.46C1393.85 1160.32 1393.73 1160.15 1393.66 1159.96C1393.58 1159.77 1393.56 1159.56 1393.58 1159.35C1394.24 1154.1 1400.39 1109.15 1412.51 1109.15C1423.26 1109.15 1475.28 1122.92 1476.7 1134.2C1478.04 1144.98 1466.19 1156.86 1455.67 1159.54C1446.68 1161.77 1429.15 1163.98 1424.94 1164.48L1420.13 1182.48C1420.08 1182.71 1419.97 1182.91 1419.81 1183.08C1419.65 1183.24 1419.46 1183.36 1419.24 1183.43L1418.79 1183.46ZM1396.29 1159.01L1418.08 1179.67L1422.55 1162.95C1422.62 1162.7 1422.76 1162.46 1422.96 1162.29C1423.16 1162.11 1423.42 1162.01 1423.68 1161.98C1423.89 1161.98 1445.08 1159.35 1454.96 1156.99C1464.84 1154.62 1475.25 1143.84 1474.1 1134.51C1473.02 1126 1425.02 1111.78 1412.51 1111.78C1405.2 1111.78 1398.74 1140.45 1396.29 1159.01V1159.01Z" fill="#040607"/>
<path d="M637.682 1159.51C637.682 1159.51 631.4 1110.46 620.071 1110.46C608.741 1110.46 558.43 1124.29 557.195 1134.36C555.959 1144.42 567.236 1155.73 577.303 1158.25C587.371 1160.77 608.846 1163.3 608.846 1163.3L613.893 1182.14L637.682 1159.51Z" fill="#040607"/>
<path d="M613.788 1183.46H613.42C613.201 1183.39 613.004 1183.27 612.847 1183.1C612.691 1182.94 612.58 1182.73 612.526 1182.51L607.715 1164.51C603.51 1164.01 585.977 1161.88 576.987 1159.56C566.315 1156.94 554.539 1145 555.959 1134.23C557.378 1122.95 609.398 1109.17 620.149 1109.17C632.266 1109.17 638.549 1154.23 639.074 1159.38C639.1 1159.59 639.075 1159.79 639.001 1159.99C638.928 1160.18 638.809 1160.35 638.654 1160.48L614.76 1183.14C614.629 1183.26 614.475 1183.35 614.307 1183.4C614.14 1183.46 613.963 1183.48 613.788 1183.46ZM620.07 1111.78C607.558 1111.78 559.612 1126 558.482 1134.51C557.326 1143.74 568.05 1154.6 577.618 1156.99C587.186 1159.38 608.688 1161.96 608.898 1161.98C609.163 1162.01 609.413 1162.12 609.615 1162.29C609.817 1162.47 609.961 1162.7 610.029 1162.96L614.497 1179.67L636.288 1159.01C633.844 1140.46 627.377 1111.78 620.07 1111.78Z" fill="#040607"/>
<path d="M783.594 1272.73C783.594 1272.73 806.226 1296.62 813.77 1340.65C813.77 1340.65 706.865 1335.6 665.36 1319.25C623.855 1302.9 618.808 1301.64 617.546 1294.1C616.284 1286.55 620.175 1232.46 636.419 1223.65C652.664 1214.84 670.381 1217.37 686.731 1229.96C703.08 1242.55 723.215 1261.5 734.545 1265.18C745.874 1268.86 783.594 1272.73 783.594 1272.73Z" fill="white"/>
<path d="M813.772 1341.96C812.694 1341.96 706.157 1336.7 664.941 1320.49L654.427 1316.33C621.832 1303.56 617.627 1301.9 616.365 1294.31C615.208 1287.31 618.704 1231.77 635.922 1222.49C652.376 1213.63 670.75 1215.92 687.652 1228.91C692.384 1232.56 697.509 1236.79 702.477 1240.89C714.648 1250.93 727.239 1261.32 735.046 1263.92C746.112 1267.6 783.464 1271.38 783.832 1271.41C784.141 1271.44 784.429 1271.58 784.647 1271.8C784.883 1272.04 807.647 1296.51 815.191 1340.41C815.218 1340.61 815.204 1340.81 815.15 1341C815.096 1341.19 815.002 1341.36 814.876 1341.51C814.74 1341.67 814.569 1341.79 814.377 1341.87C814.185 1341.95 813.978 1341.98 813.772 1341.96ZM656.425 1219.73C649.641 1219.77 642.977 1221.53 637.052 1224.83C621.78 1233.06 617.443 1285.45 618.862 1293.88C619.887 1300.01 623.909 1301.59 655.268 1313.89L665.782 1318.04C703.818 1333.02 798.5 1338.52 812.142 1339.25C804.992 1299.83 785.646 1277.04 782.912 1273.99C778.207 1273.49 744.824 1269.99 734.073 1266.42C725.793 1263.79 713.044 1253.12 700.637 1242.92C695.696 1238.84 690.596 1234.61 685.891 1230.98C676.191 1223.49 666.361 1219.73 656.425 1219.73V1219.73Z" fill="#040607"/>
<path d="M710.335 1276.38C710.335 1282.21 708.605 1287.91 705.365 1292.76C702.124 1297.61 697.518 1301.39 692.129 1303.63C686.74 1305.86 680.81 1306.44 675.089 1305.31C669.368 1304.17 664.112 1301.36 659.988 1297.23C655.863 1293.11 653.054 1287.85 651.916 1282.13C650.778 1276.41 651.362 1270.48 653.595 1265.09C655.827 1259.7 659.607 1255.1 664.457 1251.86C669.307 1248.62 675.009 1246.89 680.842 1246.89C684.716 1246.88 688.553 1247.64 692.133 1249.12C695.713 1250.61 698.965 1252.78 701.705 1255.52C704.444 1258.26 706.616 1261.51 708.097 1265.09C709.578 1268.67 710.339 1272.51 710.335 1276.38Z" fill="white"/>
<path d="M680.842 1307.16C674.748 1307.16 668.791 1305.35 663.724 1301.97C658.657 1298.58 654.709 1293.77 652.378 1288.14C650.047 1282.51 649.438 1276.31 650.629 1270.33C651.82 1264.36 654.757 1258.87 659.068 1254.56C663.379 1250.25 668.87 1247.32 674.848 1246.13C680.826 1244.95 687.021 1245.56 692.65 1247.9C698.279 1250.23 703.088 1254.19 706.47 1259.26C709.852 1264.33 711.654 1270.29 711.649 1276.38C711.642 1284.55 708.393 1292.37 702.617 1298.15C696.84 1303.92 689.008 1307.16 680.842 1307.16ZM680.842 1248.2C675.269 1248.2 669.821 1249.85 665.187 1252.95C660.553 1256.05 656.941 1260.45 654.809 1265.6C652.676 1270.74 652.118 1276.41 653.205 1281.88C654.292 1287.34 656.976 1292.36 660.917 1296.3C664.858 1300.25 669.879 1302.93 675.345 1304.02C680.811 1305.1 686.477 1304.55 691.626 1302.41C696.775 1300.28 701.175 1296.67 704.272 1292.03C707.368 1287.4 709.021 1281.95 709.021 1276.38C709.021 1268.91 706.052 1261.74 700.767 1256.45C695.483 1251.17 688.316 1248.2 680.842 1248.2Z" fill="black"/>
<path d="M762.96 1313.34C762.96 1316.05 762.156 1318.7 760.65 1320.95C759.144 1323.2 757.004 1324.96 754.5 1325.99C751.996 1327.03 749.241 1327.3 746.584 1326.77C743.927 1326.24 741.486 1324.93 739.572 1323.01C737.658 1321.09 736.356 1318.65 735.83 1315.99C735.305 1313.33 735.58 1310.58 736.62 1308.08C737.661 1305.58 739.42 1303.44 741.676 1301.94C743.931 1300.44 746.582 1299.64 749.292 1299.64C751.089 1299.64 752.868 1300 754.528 1300.69C756.188 1301.37 757.696 1302.38 758.966 1303.66C760.236 1304.93 761.242 1306.44 761.927 1308.1C762.613 1309.76 762.964 1311.54 762.96 1313.34Z" fill="white"/>
<path d="M749.291 1328.21C746.321 1328.22 743.415 1327.34 740.943 1325.7C738.471 1324.05 736.543 1321.71 735.403 1318.96C734.264 1316.22 733.965 1313.2 734.543 1310.28C735.121 1307.37 736.551 1304.69 738.652 1302.59C740.753 1300.49 743.429 1299.06 746.343 1298.48C749.257 1297.91 752.277 1298.2 755.021 1299.34C757.765 1300.48 760.109 1302.41 761.756 1304.88C763.403 1307.36 764.279 1310.26 764.274 1313.23C764.267 1317.2 762.687 1321.01 759.878 1323.82C757.07 1326.63 753.263 1328.21 749.291 1328.21V1328.21ZM749.291 1300.85C746.842 1300.85 744.445 1301.57 742.406 1302.92C740.366 1304.28 738.776 1306.21 737.834 1308.48C736.893 1310.74 736.644 1313.23 737.119 1315.63C737.594 1318.03 738.771 1320.24 740.501 1321.98C742.232 1323.71 744.438 1324.89 746.84 1325.37C749.242 1325.85 751.733 1325.61 753.997 1324.67C756.261 1323.74 758.196 1322.15 759.557 1320.11C760.919 1318.08 761.646 1315.68 761.646 1313.23C761.646 1309.95 760.345 1306.81 758.029 1304.49C755.713 1302.17 752.57 1300.86 749.291 1300.85Z" fill="black"/>
<path d="M1252.53 1272.73C1252.53 1272.73 1229.9 1296.62 1222.36 1340.65C1222.36 1340.65 1329.26 1335.6 1370.77 1319.25C1412.27 1302.9 1417.32 1301.64 1418.58 1294.1C1419.84 1286.55 1415.95 1232.46 1399.71 1223.65C1383.46 1214.84 1365.75 1217.37 1349.4 1229.96C1333.05 1242.55 1312.91 1261.5 1301.58 1265.18C1290.25 1268.86 1252.53 1272.73 1252.53 1272.73Z" fill="white"/>
<path d="M1222.36 1341.96C1222.17 1341.96 1221.98 1341.92 1221.81 1341.84C1221.64 1341.77 1221.49 1341.65 1221.36 1341.51C1221.23 1341.36 1221.14 1341.19 1221.08 1341C1221.03 1340.81 1221.02 1340.61 1221.04 1340.41C1228.59 1296.51 1251.35 1272.07 1251.59 1271.8C1251.8 1271.58 1252.09 1271.44 1252.4 1271.41C1252.77 1271.41 1290.12 1267.6 1301.19 1263.92C1309.07 1261.29 1321.59 1250.93 1333.76 1240.89C1338.72 1236.79 1343.85 1232.56 1348.58 1228.91C1365.48 1215.92 1383.86 1213.63 1400.34 1222.49C1417.53 1231.77 1421.03 1287.31 1419.87 1294.31C1418.61 1301.9 1414.43 1303.56 1381.81 1316.33L1371.29 1320.49C1330.05 1336.73 1223.51 1341.91 1222.44 1341.96H1222.36ZM1253.16 1273.91C1250.54 1276.96 1231.08 1299.9 1223.93 1339.18C1237.58 1338.44 1332.26 1332.95 1370.29 1317.96L1380.81 1313.81C1412.17 1301.51 1416.22 1299.93 1417.21 1293.81C1418.63 1285.37 1414.32 1232.98 1399.02 1224.75C1383.25 1216.26 1366.4 1218.42 1350.13 1230.9C1345.43 1234.53 1340.33 1238.79 1335.39 1242.84C1323.03 1253.04 1310.23 1263.58 1301.95 1266.34C1291.25 1269.99 1257.79 1273.49 1253.16 1273.91Z" fill="#121517"/>
<path d="M1332.58 1276.38C1332.58 1282.21 1334.31 1287.91 1337.55 1292.76C1340.79 1297.61 1345.39 1301.39 1350.78 1303.63C1356.17 1305.86 1362.1 1306.44 1367.82 1305.3C1373.54 1304.17 1378.8 1301.36 1382.92 1297.23C1387.05 1293.11 1389.86 1287.85 1390.99 1282.13C1392.13 1276.41 1391.55 1270.48 1389.32 1265.09C1387.08 1259.7 1383.3 1255.1 1378.45 1251.86C1373.6 1248.62 1367.9 1246.89 1362.07 1246.89C1358.19 1246.88 1354.36 1247.64 1350.78 1249.12C1347.2 1250.6 1343.95 1252.78 1341.21 1255.52C1338.47 1258.26 1336.3 1261.51 1334.81 1265.09C1333.33 1268.67 1332.57 1272.5 1332.58 1276.38V1276.38Z" fill="white"/>
<path d="M1362.07 1307.16C1355.97 1307.17 1350.01 1305.36 1344.94 1301.98C1339.87 1298.6 1335.92 1293.78 1333.58 1288.15C1331.25 1282.52 1330.64 1276.33 1331.82 1270.35C1333.01 1264.37 1335.95 1258.88 1340.26 1254.57C1344.57 1250.26 1350.06 1247.32 1356.04 1246.14C1362.01 1244.95 1368.21 1245.56 1373.84 1247.9C1379.47 1250.23 1384.28 1254.18 1387.67 1259.25C1391.05 1264.32 1392.85 1270.28 1392.85 1276.38C1392.83 1284.54 1389.59 1292.36 1383.82 1298.13C1378.05 1303.9 1370.23 1307.15 1362.07 1307.16V1307.16ZM1362.07 1248.2C1356.49 1248.2 1351.04 1249.84 1346.4 1252.94C1341.77 1256.03 1338.15 1260.43 1336.01 1265.58C1333.88 1270.73 1333.32 1276.39 1334.4 1281.86C1335.48 1287.33 1338.17 1292.35 1342.11 1296.3C1346.04 1300.24 1351.07 1302.92 1356.53 1304.01C1362 1305.1 1367.67 1304.55 1372.82 1302.42C1377.97 1300.28 1382.37 1296.67 1385.47 1292.04C1388.56 1287.4 1390.22 1281.95 1390.22 1276.38C1390.21 1268.91 1387.24 1261.75 1381.97 1256.47C1376.69 1251.19 1369.53 1248.21 1362.07 1248.2V1248.2Z" fill="#121517"/>
<path d="M1279.93 1313.34C1279.93 1316.05 1280.73 1318.69 1282.23 1320.95C1283.74 1323.2 1285.88 1324.95 1288.38 1325.99C1290.88 1327.03 1293.64 1327.3 1296.29 1326.77C1298.95 1326.24 1301.39 1324.94 1303.3 1323.02C1305.22 1321.11 1306.52 1318.67 1307.05 1316.01C1307.58 1313.35 1307.31 1310.6 1306.27 1308.1C1305.24 1305.59 1303.48 1303.46 1301.23 1301.95C1298.98 1300.45 1296.33 1299.64 1293.62 1299.64C1289.99 1299.64 1286.51 1301.09 1283.94 1303.65C1281.37 1306.22 1279.93 1309.71 1279.93 1313.34Z" fill="white"/>
<path d="M1293.62 1328.21C1290.65 1328.21 1287.75 1327.33 1285.28 1325.68C1282.81 1324.03 1280.88 1321.69 1279.75 1318.94C1278.61 1316.2 1278.32 1313.18 1278.9 1310.27C1279.48 1307.36 1280.91 1304.68 1283.01 1302.58C1285.12 1300.49 1287.79 1299.06 1290.71 1298.48C1293.62 1297.91 1296.64 1298.21 1299.38 1299.35C1302.12 1300.49 1304.47 1302.41 1306.11 1304.89C1307.76 1307.36 1308.63 1310.26 1308.63 1313.23C1308.61 1317.21 1307.03 1321.01 1304.21 1323.82C1301.4 1326.63 1297.59 1328.21 1293.62 1328.21V1328.21ZM1293.62 1300.85C1291.17 1300.85 1288.78 1301.58 1286.74 1302.94C1284.7 1304.3 1283.12 1306.23 1282.18 1308.49C1281.24 1310.76 1281 1313.25 1281.48 1315.65C1281.95 1318.05 1283.13 1320.25 1284.86 1321.99C1286.6 1323.72 1288.8 1324.9 1291.2 1325.37C1293.6 1325.85 1296.09 1325.61 1298.36 1324.67C1300.62 1323.73 1302.55 1322.15 1303.91 1320.11C1305.27 1318.07 1306 1315.68 1306 1313.23C1305.99 1309.95 1304.69 1306.81 1302.37 1304.49C1300.05 1302.16 1296.9 1300.86 1293.62 1300.85V1300.85Z" fill="#121517"/>
<path d="M1387.35 1384.68C1387.35 1384.68 1270.38 1407.31 1265.33 1410.96C1260.29 1414.62 1250.25 1436.12 1250.25 1436.12L1274.14 1429.84C1274.14 1429.84 1329.5 1432.47 1348.34 1423.55C1367.19 1414.64 1387.35 1384.68 1387.35 1384.68Z" fill="#040607"/>
<path d="M1250.25 1437.54C1250.02 1437.54 1249.8 1437.49 1249.61 1437.39C1249.41 1437.28 1249.25 1437.13 1249.13 1436.94C1249.01 1436.75 1248.94 1436.54 1248.93 1436.31C1248.92 1436.09 1248.96 1435.87 1249.06 1435.67C1249.48 1434.8 1259.31 1413.96 1264.55 1410.02C1269.78 1406.07 1375.1 1385.7 1387.09 1383.36C1387.35 1383.32 1387.61 1383.35 1387.85 1383.45C1388.08 1383.56 1388.29 1383.73 1388.43 1383.94C1388.58 1384.15 1388.66 1384.4 1388.66 1384.66C1388.66 1384.92 1388.58 1385.18 1388.43 1385.39C1387.62 1386.65 1367.9 1415.98 1349 1424.82C1330.1 1433.65 1278.58 1431.41 1274.38 1431.26L1250.72 1437.49L1250.25 1437.54ZM1384.3 1386.57C1337.57 1395.64 1269.7 1409.52 1266.02 1412.12C1262.34 1414.72 1255.98 1427.23 1252.56 1434.25L1273.59 1428.68H1273.98C1274.53 1428.68 1329.18 1431.1 1347.58 1422.53C1362.93 1415.43 1379.05 1394.06 1384.41 1386.57H1384.3Z" fill="#040607"/>
<path d="M654.031 1384.68C654.031 1384.68 771.003 1407.31 776.05 1410.96C781.097 1414.62 791.138 1436.12 791.138 1436.12L767.244 1429.84C767.244 1429.84 711.886 1432.47 693.039 1423.55C674.192 1414.64 654.031 1384.68 654.031 1384.68Z" fill="#040607"/>
<path d="M791.136 1437.54H790.795L767.137 1431.31C762.932 1431.47 711.07 1433.54 692.512 1424.87C673.534 1416.01 653.819 1386.67 653.083 1385.44C652.931 1385.23 652.85 1384.98 652.85 1384.72C652.85 1384.46 652.931 1384.2 653.083 1383.99C653.227 1383.78 653.43 1383.61 653.668 1383.51C653.906 1383.4 654.168 1383.37 654.424 1383.41C666.41 1385.75 771.843 1406.23 776.968 1410.09C782.094 1413.96 792.03 1434.86 792.451 1435.72C792.551 1435.92 792.598 1436.14 792.587 1436.37C792.576 1436.59 792.507 1436.8 792.388 1436.99C792.269 1437.18 792.103 1437.33 791.907 1437.44C791.71 1437.54 791.49 1437.6 791.268 1437.59L791.136 1437.54ZM767.243 1428.63H767.584L788.613 1434.2C785.196 1427.18 778.572 1414.64 775.155 1412.07C771.738 1409.49 703.605 1395.58 656.868 1386.52C662.126 1394.01 678.396 1415.43 693.485 1422.42C711.885 1430.99 766.533 1428.6 767.085 1428.57L767.243 1428.63Z" fill="#040607"/>
<path d="M1240.73 1293.39H1240.34L1209.29 1283.03H1184.85C1184.5 1283.03 1184.16 1282.89 1183.92 1282.64C1183.67 1282.4 1183.53 1282.06 1183.53 1281.71C1183.53 1281.37 1183.67 1281.03 1183.92 1280.79C1184.16 1280.54 1184.5 1280.4 1184.85 1280.4H1209.5C1209.64 1280.38 1209.79 1280.38 1209.92 1280.4L1241.15 1290.92C1241.5 1290.97 1241.81 1291.16 1242.02 1291.45C1242.23 1291.73 1242.31 1292.09 1242.26 1292.44C1242.2 1292.79 1242.01 1293.1 1241.72 1293.31C1241.44 1293.51 1241.08 1293.6 1240.73 1293.54V1293.39Z" fill="#040607"/>
<path d="M797.447 1291.91C797.216 1291.91 796.99 1291.84 796.792 1291.72C796.594 1291.6 796.43 1291.43 796.317 1291.23C796.146 1290.93 796.103 1290.57 796.197 1290.23C796.291 1289.9 796.513 1289.61 796.816 1289.44L817.634 1277.54C817.834 1277.42 818.062 1277.37 818.292 1277.38L846.496 1277.69C846.671 1277.69 846.844 1277.73 847.005 1277.8C847.167 1277.86 847.313 1277.96 847.435 1278.09C847.557 1278.21 847.654 1278.36 847.718 1278.52C847.783 1278.68 847.814 1278.86 847.811 1279.03C847.774 1279.37 847.62 1279.69 847.375 1279.92C847.13 1280.16 846.809 1280.3 846.47 1280.32L818.633 1280.01L798.104 1291.73C797.903 1291.84 797.677 1291.91 797.447 1291.91V1291.91Z" fill="#040607"/>
<path d="M1329.29 1152.7C1329.05 1152.7 1328.82 1152.64 1328.62 1152.53C1328.42 1152.41 1328.25 1152.25 1328.13 1152.05C1328.01 1151.74 1328.01 1151.4 1328.12 1151.08C1328.24 1150.77 1328.47 1150.52 1328.76 1150.36C1331.99 1148.5 1335.28 1146.76 1338.49 1145.11C1338.8 1144.99 1339.14 1144.99 1339.45 1145.11C1339.76 1145.23 1340.01 1145.46 1340.15 1145.76C1340.3 1146.06 1340.32 1146.41 1340.22 1146.72C1340.12 1147.04 1339.91 1147.31 1339.62 1147.47C1336.46 1149 1333.26 1150.71 1330.08 1152.55C1329.83 1152.67 1329.56 1152.72 1329.29 1152.7V1152.7Z" fill="#040607"/>
<path d="M1190.82 1331.26C1190.63 1331.3 1190.45 1331.3 1190.26 1331.26C1190.11 1331.19 1189.97 1331.09 1189.85 1330.97C1189.73 1330.84 1189.64 1330.69 1189.58 1330.53C1189.52 1330.37 1189.5 1330.2 1189.51 1330.02C1189.51 1329.85 1189.56 1329.68 1189.63 1329.53C1210.66 1283.24 1255.35 1199.34 1317.64 1157.23C1317.79 1157.13 1317.94 1157.06 1318.11 1157.02C1318.28 1156.98 1318.45 1156.98 1318.62 1157.01C1318.79 1157.05 1318.95 1157.11 1319.1 1157.21C1319.24 1157.3 1319.36 1157.42 1319.46 1157.57C1319.56 1157.71 1319.63 1157.87 1319.66 1158.04C1319.7 1158.21 1319.7 1158.39 1319.67 1158.56C1319.64 1158.73 1319.57 1158.89 1319.48 1159.04C1319.38 1159.18 1319.26 1159.31 1319.12 1159.41C1257.29 1201.04 1212.95 1284.42 1192.08 1330.5C1191.97 1330.74 1191.79 1330.94 1191.56 1331.08C1191.34 1331.21 1191.08 1331.28 1190.82 1331.26Z" fill="#040607"/>
<path d="M1179.75 1357.37C1179.6 1357.4 1179.45 1357.4 1179.3 1357.37C1178.97 1357.25 1178.71 1357 1178.56 1356.69C1178.41 1356.37 1178.4 1356.01 1178.51 1355.68C1178.51 1355.68 1180.12 1351.45 1183.09 1344.41C1183.15 1344.24 1183.25 1344.1 1183.37 1343.97C1183.5 1343.85 1183.64 1343.75 1183.81 1343.69C1183.97 1343.62 1184.14 1343.59 1184.32 1343.59C1184.49 1343.59 1184.66 1343.63 1184.82 1343.7C1185.14 1343.84 1185.39 1344.09 1185.51 1344.41C1185.64 1344.73 1185.64 1345.09 1185.51 1345.41C1182.56 1352.42 1181.01 1356.58 1180.98 1356.6C1180.87 1356.83 1180.69 1357.03 1180.48 1357.16C1180.26 1357.3 1180.01 1357.37 1179.75 1357.37V1357.37Z" fill="#040607"/>
<path d="M714.015 1159.49C713.775 1159.49 713.537 1159.43 713.332 1159.3C708.075 1156.12 702.66 1153.15 697.219 1150.44C697.043 1150.38 696.883 1150.28 696.749 1150.15C696.614 1150.03 696.509 1149.87 696.439 1149.7C696.369 1149.53 696.336 1149.34 696.343 1149.16C696.349 1148.97 696.396 1148.79 696.478 1148.62C696.56 1148.45 696.677 1148.31 696.821 1148.19C696.964 1148.07 697.131 1147.98 697.31 1147.94C697.489 1147.89 697.677 1147.88 697.861 1147.91C698.044 1147.93 698.22 1148 698.375 1148.1C703.895 1150.73 709.389 1153.83 714.699 1157.07C714.935 1157.22 715.116 1157.44 715.216 1157.71C715.315 1157.97 715.327 1158.26 715.251 1158.53C715.174 1158.8 715.013 1159.04 714.791 1159.21C714.568 1159.38 714.297 1159.48 714.015 1159.49V1159.49Z" fill="#040607"/>
<path d="M840.004 1332.24C839.726 1332.24 839.454 1332.16 839.227 1331.99C839.001 1331.83 838.831 1331.61 838.742 1331.34C824.81 1289.68 791.427 1212.87 724.346 1166.45C724.194 1166.36 724.063 1166.23 723.961 1166.09C723.859 1165.94 723.788 1165.78 723.752 1165.6C723.716 1165.43 723.716 1165.25 723.751 1165.07C723.787 1164.9 723.858 1164.73 723.96 1164.58C724.062 1164.44 724.192 1164.31 724.343 1164.22C724.495 1164.13 724.664 1164.06 724.84 1164.04C725.016 1164.01 725.196 1164.02 725.369 1164.06C725.542 1164.11 725.703 1164.19 725.844 1164.3C793.53 1211.14 827.202 1288.55 841.239 1330.5C841.348 1330.83 841.324 1331.19 841.171 1331.5C841.019 1331.81 840.75 1332.04 840.424 1332.16L840.004 1332.24Z" fill="#040607"/>
<path d="M846.549 1354.37C846.252 1354.38 845.961 1354.28 845.727 1354.1C845.492 1353.92 845.327 1353.66 845.261 1353.37C845.261 1353.37 844.314 1349.32 842.29 1342.51C842.238 1342.35 842.22 1342.17 842.237 1342C842.253 1341.82 842.305 1341.65 842.388 1341.5C842.471 1341.34 842.585 1341.21 842.721 1341.1C842.858 1340.99 843.015 1340.91 843.184 1340.86C843.519 1340.77 843.875 1340.81 844.179 1340.98C844.483 1341.14 844.71 1341.42 844.814 1341.75C846.864 1348.64 847.81 1352.74 847.837 1352.77C847.875 1352.93 847.88 1353.11 847.851 1353.28C847.822 1353.45 847.759 1353.62 847.666 1353.76C847.573 1353.91 847.452 1354.04 847.31 1354.14C847.168 1354.24 847.007 1354.31 846.838 1354.34L846.549 1354.37Z" fill="#040607"/>
<path d="M662.101 1219.18C662.101 1219.18 648.695 1186.45 648.695 1167.13Z" fill="white"/>
<path d="M662.101 1220.5C661.837 1220.5 661.578 1220.42 661.358 1220.28C661.137 1220.13 660.966 1219.93 660.866 1219.68C660.314 1218.34 647.381 1186.51 647.381 1167.11C647.381 1166.76 647.519 1166.43 647.766 1166.18C648.012 1165.93 648.347 1165.79 648.695 1165.79C649.044 1165.79 649.378 1165.93 649.625 1166.18C649.871 1166.43 650.009 1166.76 650.009 1167.11C650.009 1185.96 663.152 1218.34 663.31 1218.66C663.435 1218.98 663.431 1219.34 663.299 1219.66C663.168 1219.99 662.917 1220.25 662.6 1220.39L662.101 1220.5Z" fill="#040607"/>
<path d="M1377.6 1217.71C1381.2 1204.04 1383.68 1190.11 1385.04 1176.05Z" fill="white"/>
<path d="M1377.6 1219.02C1377.47 1219.05 1377.34 1219.05 1377.21 1219.02C1377.04 1218.98 1376.89 1218.89 1376.75 1218.79C1376.62 1218.68 1376.51 1218.54 1376.43 1218.39C1376.35 1218.24 1376.3 1218.07 1376.28 1217.9C1376.27 1217.73 1376.29 1217.56 1376.34 1217.39C1379.9 1203.81 1382.37 1189.97 1383.72 1175.99C1383.76 1175.64 1383.94 1175.33 1384.21 1175.11C1384.49 1174.89 1384.84 1174.79 1385.18 1174.82C1385.53 1174.86 1385.85 1175.04 1386.07 1175.31C1386.29 1175.58 1386.39 1175.93 1386.35 1176.28C1385 1190.42 1382.49 1204.42 1378.86 1218.16C1378.77 1218.42 1378.6 1218.64 1378.37 1218.8C1378.15 1218.95 1377.88 1219.03 1377.6 1219.02V1219.02Z" fill="#040607"/>
<path d="M1249.67 1482.3C1249.48 1482.3 1249.28 1482.26 1249.11 1482.17C1248.93 1482.09 1248.77 1481.97 1248.64 1481.83C1247.49 1480.41 1220.12 1447.13 1218.6 1432.04C1217 1415.96 1238.63 1393.51 1244.89 1391.96C1251.14 1390.41 1350.77 1370.48 1355.02 1369.61C1355.37 1369.55 1355.72 1369.63 1356.01 1369.82C1356.3 1370.02 1356.5 1370.32 1356.57 1370.67C1356.61 1370.83 1356.61 1371.01 1356.58 1371.17C1356.54 1371.34 1356.48 1371.5 1356.38 1371.64C1356.29 1371.79 1356.16 1371.91 1356.02 1372C1355.88 1372.09 1355.72 1372.16 1355.55 1372.19C1354.5 1372.4 1251.38 1393.04 1245.52 1394.51C1240.05 1395.87 1219.81 1417.56 1221.23 1431.78C1222.57 1445.11 1246.78 1475.36 1250.27 1479.65L1413.56 1472.29L1422.39 1357.42C1422.43 1357.07 1422.59 1356.75 1422.86 1356.53C1423.12 1356.3 1423.47 1356.19 1423.81 1356.21C1423.99 1356.22 1424.16 1356.27 1424.31 1356.35C1424.46 1356.43 1424.6 1356.54 1424.71 1356.67C1424.83 1356.8 1424.91 1356.95 1424.96 1357.12C1425.02 1357.28 1425.04 1357.46 1425.02 1357.63L1416.09 1473.68C1416.06 1474 1415.92 1474.29 1415.7 1474.52C1415.47 1474.74 1415.17 1474.87 1414.85 1474.89L1249.72 1482.33L1249.67 1482.3Z" fill="#040607"/>
<path d="M789.904 1482.3L624.802 1474.86C624.48 1474.85 624.174 1474.72 623.941 1474.5C623.709 1474.28 623.566 1473.98 623.54 1473.65L614.63 1357.63C614.615 1357.46 614.635 1357.28 614.688 1357.12C614.741 1356.95 614.826 1356.8 614.939 1356.67C615.051 1356.54 615.189 1356.43 615.343 1356.35C615.497 1356.27 615.666 1356.22 615.839 1356.21C616.01 1356.2 616.182 1356.22 616.346 1356.27C616.509 1356.32 616.66 1356.41 616.79 1356.52C616.92 1356.63 617.026 1356.77 617.102 1356.92C617.178 1357.08 617.222 1357.25 617.232 1357.42L626.064 1472.29L789.378 1479.65C792.848 1475.36 817.083 1445.11 818.292 1431.78C819.712 1417.56 799.445 1395.87 793.978 1394.51C788.51 1393.14 684.997 1372.4 683.972 1372.19C683.802 1372.16 683.64 1372.1 683.495 1372.01C683.35 1371.91 683.226 1371.79 683.13 1371.65C683.034 1371.51 682.968 1371.35 682.936 1371.18C682.905 1371.01 682.908 1370.83 682.946 1370.67C683.01 1370.33 683.206 1370.02 683.492 1369.83C683.778 1369.63 684.13 1369.55 684.471 1369.62C688.729 1370.48 788.721 1390.49 794.609 1391.96C800.497 1393.43 822.498 1415.96 820.895 1432.04C819.396 1447.13 791.98 1480.41 790.85 1481.83C790.732 1481.97 790.588 1482.08 790.425 1482.16C790.263 1482.24 790.085 1482.29 789.904 1482.3V1482.3Z" fill="#040607"/>
<path d="M1021.22 1318.38C1018.54 1318.38 1015.91 1318.28 1013.33 1318.07L891.946 1308.34C891.597 1308.31 891.274 1308.15 891.047 1307.88C890.82 1307.62 890.709 1307.27 890.737 1306.92C890.765 1306.57 890.93 1306.25 891.196 1306.02C891.462 1305.8 891.808 1305.69 892.156 1305.71L1013.33 1315.44C1018.42 1315.83 1023.52 1315.83 1028.61 1315.44L1140.48 1306.74C1140.65 1306.72 1140.83 1306.73 1141 1306.78C1141.17 1306.83 1141.32 1306.92 1141.46 1307.03C1141.59 1307.14 1141.7 1307.28 1141.77 1307.44C1141.85 1307.6 1141.89 1307.77 1141.9 1307.95C1141.91 1308.12 1141.89 1308.29 1141.84 1308.46C1141.79 1308.62 1141.7 1308.78 1141.59 1308.91C1141.48 1309.04 1141.34 1309.15 1141.18 1309.23C1141.03 1309.31 1140.86 1309.35 1140.69 1309.37L1028.82 1318.04C1026.31 1318.27 1023.78 1318.38 1021.22 1318.38Z" fill="#040607"/>
<path d="M1021.22 1330.45C1018.54 1330.45 1015.91 1330.34 1013.33 1330.13L899.935 1321.07C899.591 1321.03 899.275 1320.86 899.051 1320.59C898.827 1320.33 898.71 1319.99 898.726 1319.65C898.739 1319.47 898.787 1319.31 898.865 1319.15C898.944 1319 899.052 1318.86 899.184 1318.75C899.316 1318.63 899.469 1318.55 899.634 1318.5C899.799 1318.44 899.973 1318.42 900.145 1318.44L1013.33 1327.51C1018.42 1327.89 1023.52 1327.89 1028.6 1327.51L1136.56 1319.12C1136.74 1319.09 1136.91 1319.11 1137.08 1319.15C1137.25 1319.2 1137.41 1319.29 1137.55 1319.4C1137.68 1319.52 1137.79 1319.66 1137.86 1319.82C1137.94 1319.98 1137.98 1320.15 1137.98 1320.33C1138 1320.67 1137.89 1321.01 1137.66 1321.27C1137.43 1321.53 1137.11 1321.7 1136.77 1321.72L1028.81 1330.11C1026.31 1330.34 1023.78 1330.45 1021.22 1330.45Z" fill="#040607"/>
<path d="M1021.22 1342.51C1018.54 1342.51 1015.91 1342.41 1013.33 1342.2L908.188 1333.76C907.839 1333.73 907.516 1333.57 907.289 1333.3C907.063 1333.04 906.951 1332.69 906.979 1332.34C907.007 1331.99 907.172 1331.67 907.438 1331.44C907.704 1331.22 908.05 1331.1 908.398 1331.13L1013.33 1339.62C1018.41 1340.02 1023.52 1340.02 1028.6 1339.62L1131.12 1331.74C1131.29 1331.71 1131.47 1331.72 1131.64 1331.77C1131.81 1331.82 1131.97 1331.9 1132.1 1332.02C1132.24 1332.13 1132.35 1332.27 1132.42 1332.43C1132.5 1332.59 1132.54 1332.77 1132.54 1332.95C1132.56 1333.29 1132.45 1333.64 1132.22 1333.9C1131.99 1334.17 1131.67 1334.33 1131.33 1334.37L1028.81 1342.25C1026.31 1342.43 1023.78 1342.51 1021.22 1342.51Z" fill="#040607"/>
<path d="M1357.15 1131.96C1164.5 1113.33 676.717 1131.78 671.801 1131.96C671.573 1131.97 671.346 1131.92 671.143 1131.82C670.94 1131.71 670.768 1131.55 670.645 1131.36C670.523 1131.17 670.459 1130.94 670.459 1130.72C670.459 1130.49 670.523 1130.26 670.645 1130.07C701.531 1069.09 760.411 930.877 760.989 929.563C761.084 929.349 761.234 929.163 761.423 929.025C761.612 928.887 761.834 928.8 762.067 928.774C1046.98 900.149 1269.57 927.25 1271.8 927.513C1272.03 927.547 1272.24 927.637 1272.42 927.775C1272.6 927.913 1272.74 928.094 1272.83 928.301L1358.36 1130.15C1358.47 1130.35 1358.53 1130.57 1358.53 1130.79C1358.53 1131.02 1358.47 1131.24 1358.36 1131.44C1358.22 1131.62 1358.04 1131.77 1357.83 1131.86C1357.61 1131.95 1357.38 1131.99 1357.15 1131.96V1131.96ZM763.092 931.324C758.492 942.075 703.975 1069.67 673.72 1129.26C709.863 1127.92 1167.47 1111.46 1355 1129.26L1270.62 930.141C1256.27 928.249 1039.04 903.619 763.118 931.245L763.092 931.324Z" fill="#040607"/>
<path d="M964.603 1021.43C907.534 1069.01 751.592 1111.4 670.973 1130.95C759.313 1126.5 1179.4 1111.15 1355.76 1128.93L1271.93 930.825C1158.98 920.124 1023.15 972.579 964.603 1021.43Z" fill="#8F91FF"/>
<path d="M1659.36 1638.35C1750.41 1638.35 1824.22 1622.04 1824.22 1601.91C1824.22 1581.78 1750.41 1565.47 1659.36 1565.47C1568.3 1565.47 1494.49 1581.78 1494.49 1601.91C1494.49 1622.04 1568.3 1638.35 1659.36 1638.35Z" fill="#92E3A9"/>
<path opacity="0.5" d="M1659.36 1638.35C1750.41 1638.35 1824.22 1622.04 1824.22 1601.91C1824.22 1581.78 1750.41 1565.47 1659.36 1565.47C1568.3 1565.47 1494.49 1581.78 1494.49 1601.91C1494.49 1622.04 1568.3 1638.35 1659.36 1638.35Z" fill="white"/>
<path d="M1573.14 1564.63C1573.14 1564.63 1533.16 1587.13 1533.16 1597.95C1533.16 1608.78 1557.84 1602.12 1573.97 1594.48C1590.11 1586.85 1602.92 1581.16 1602.92 1566.16C1602.92 1551.17 1573.14 1564.63 1573.14 1564.63Z" fill="#92E3A9" stroke="#263238" stroke-width="3.26941" stroke-miterlimit="10"/>
<path d="M1764.56 1564.63C1764.56 1564.63 1804.54 1587.13 1804.54 1597.95C1804.54 1608.78 1779.86 1602.12 1763.72 1594.48C1747.58 1586.85 1734.78 1581.16 1734.78 1566.16C1734.78 1551.17 1764.56 1564.63 1764.56 1564.63Z" fill="#92E3A9" stroke="#263238" stroke-width="3.26941" stroke-miterlimit="10"/>
<path d="M1589.32 1196.49L1572.28 1568.94C1574.63 1570.88 1577.36 1572.32 1580.29 1573.18C1583.21 1574.04 1586.29 1574.3 1589.32 1573.94C1594.61 1573.15 1599.44 1570.49 1602.92 1566.44L1660.78 1262.43H1672.69L1733.98 1572.13C1737.64 1574.16 1741.71 1575.34 1745.89 1575.6C1751.82 1575.6 1761.19 1568.11 1761.19 1568.11L1741.62 1196.73L1589.32 1196.49Z" fill="#263238" stroke="#263238" stroke-width="3.26941" stroke-miterlimit="10"/>
<path d="M1648.88 970.777L1571.44 1002.4L1591.85 1182.32H1739.88L1767.13 995.733L1682.89 969.111L1648.88 970.777Z" fill="#92E3A9" stroke="#263238" stroke-width="3.26941" stroke-miterlimit="10"/>
<path d="M1657.38 996.565L1666.71 1011.56L1651.41 1140.67L1670.12 1168.16L1686.29 1138.17L1673.52 1009.89L1684.59 992.435L1668.42 985.354L1657.38 996.565Z" fill="#263238" stroke="#263238" stroke-width="3.26941" stroke-miterlimit="10"/>
<path d="M1668.41 985.356L1655.99 1006.63L1633.85 977.13L1646.24 962.379L1668.41 985.356Z" fill="#92E3A9" stroke="#263238" stroke-width="3.26941" stroke-miterlimit="10"/>
<path d="M1668.42 985.356L1683.48 1008.78L1701.63 975.395L1691.01 961.928L1668.42 985.356Z" fill="#92E3A9" stroke="#263238" stroke-width="3.26941" stroke-miterlimit="10"/>
<path d="M1638.36 1035.72H1586.19V1053.49L1612.29 1063.48L1638.36 1052.38V1035.72Z" fill="#92E3A9" stroke="#263238" stroke-width="3.26941" stroke-miterlimit="10"/>
<path d="M1742.72 1035.72H1690.56V1053.49L1716.62 1063.48L1742.72 1052.38V1035.72Z" fill="#92E3A9" stroke="#263238" stroke-width="3.26941" stroke-miterlimit="10"/>
<path d="M1741.62 1178.99H1589.32V1196.49H1741.62V1178.99Z" fill="#263238" stroke="#263238" stroke-width="3.26941" stroke-miterlimit="10"/>
<path d="M1586.75 1193.15L1560.37 1203.98C1559.94 1211.52 1560.51 1219.08 1562.07 1226.47C1564.64 1236.47 1568.04 1258.13 1570.57 1262.29C1573.11 1266.46 1585.91 1274.79 1587.61 1272.29C1589.31 1269.79 1597.82 1196.48 1597.82 1196.48L1586.75 1193.15Z" fill="#263238" stroke="#263238" stroke-width="3.26941" stroke-miterlimit="10"/>
<path d="M1646.24 932.009V962.378L1668.41 985.355L1691.01 961.927V931.558L1646.24 932.009Z" fill="white" stroke="#263238" stroke-width="3.26941" stroke-miterlimit="10"/>
<path d="M1630.76 903.826C1630.76 903.826 1626.77 894.698 1624.09 900.355C1621.42 906.013 1624.54 914.655 1628.54 918.126C1631.47 920.255 1635.11 921.185 1638.71 920.729L1636.48 907.713L1630.76 903.826Z" fill="white" stroke="#263238" stroke-width="3.26941" stroke-miterlimit="10"/>
<path d="M1702.95 903.826C1702.95 903.826 1706.94 894.698 1709.61 900.355C1712.29 906.013 1709.16 914.655 1705.17 918.126C1702.22 920.257 1698.58 921.187 1694.97 920.729L1697.19 907.713L1702.95 903.826Z" fill="white" stroke="#263238" stroke-width="3.26941" stroke-miterlimit="10"/>
<path d="M1638.29 843.538C1638.29 843.538 1619.65 851.347 1619.65 864.362C1619.65 877.378 1622.32 892.129 1626.77 897.786C1631.21 903.444 1634.71 907.331 1634.71 907.331L1635.62 888.658L1648.46 866.549C1648.46 866.549 1669.73 879.981 1680.35 879.981C1686.29 880.034 1692.22 879.604 1698.09 878.697L1702.08 900.806L1707.84 884.771V870.02C1707.84 870.02 1718.46 860.024 1716.24 853.534C1714.02 847.043 1678.06 826.635 1655.99 831.841C1633.92 837.047 1638.29 843.538 1638.29 843.538Z" fill="#263238" stroke="#263238" stroke-width="3.26941" stroke-miterlimit="10"/>
<path d="M1629.4 887.339C1629.4 887.339 1634.71 919.861 1639.16 928.538C1645 938.166 1652.16 946.928 1660.43 954.569C1663.52 956.721 1675.04 954.986 1679.49 954.986C1683.93 954.986 1696.84 928.954 1698.96 924.199C1701.07 919.444 1702.43 878.662 1702.43 878.662L1698.54 871.304C1698.54 871.304 1679.49 876.094 1664.42 870.02C1656.25 867.091 1648.93 862.164 1643.15 855.686C1643.15 855.686 1641.83 870.437 1636.48 879.114C1631.14 887.791 1629.4 887.339 1629.4 887.339Z" fill="white" stroke="#263238" stroke-width="3.26941" stroke-miterlimit="10"/>
<path d="M1663.52 890.81C1658.16 888.01 1652.21 886.523 1646.17 886.472C1640.98 886.266 1635.81 887.302 1631.1 889.492C1631.1 889.492 1631.1 904.242 1636 909.9C1640.89 915.557 1655.05 913.787 1659.04 909.032C1663.04 904.277 1663.52 890.81 1663.52 890.81Z" fill="#263238" stroke="#263238" stroke-width="3.26941" stroke-miterlimit="10"/>
<path d="M1669.73 890.81C1675.09 888.01 1681.04 886.523 1687.09 886.472C1692.28 886.266 1697.44 887.302 1702.15 889.492C1702.15 889.492 1702.15 904.242 1697.26 909.9C1692.36 915.557 1678.2 913.787 1674.25 909.032C1670.29 904.277 1669.73 890.81 1669.73 890.81Z" fill="#263238" stroke="#263238" stroke-width="3.26941" stroke-miterlimit="10"/>
<path d="M1663.52 890.81H1669.73" stroke="#263238" stroke-width="3.26941" stroke-miterlimit="10"/>
<path d="M1572.27 1165.66L1600.35 1164.83L1621.63 1183.99C1621.6 1186.44 1620.7 1188.8 1619.1 1190.65C1616.53 1193.15 1609.72 1191.49 1609.72 1191.49C1609.72 1191.49 1604.62 1203.98 1595.25 1203.98C1585.88 1203.98 1560.54 1186.63 1560.54 1186.63L1572.27 1165.66Z" fill="white" stroke="#263238" stroke-width="3.26941" stroke-miterlimit="10"/>
<path d="M1571.44 1002.4L1477 1126.51L1560.37 1186.49L1572.27 1165.66L1546.76 1116.52L1581.65 1084.86L1571.44 1002.4Z" fill="#92E3A9" stroke="#263238" stroke-width="3.26941" stroke-miterlimit="10"/>
<path d="M1565.47 1151.5L1551.03 1177.33" stroke="#263238" stroke-width="3.26941" stroke-linecap="round" stroke-linejoin="round"/>
<path d="M1546.76 1116.52L1535.69 1088.2" stroke="#263238" stroke-width="3.26941" stroke-linecap="round" stroke-linejoin="round"/>
<path d="M1767.12 1165.66L1739.05 1164.83L1717.77 1183.99C1717.81 1186.44 1718.72 1188.8 1720.34 1190.65C1722.87 1193.15 1729.67 1191.49 1729.67 1191.49C1729.67 1191.49 1734.78 1203.98 1744.15 1203.98C1753.52 1203.98 1779.03 1186.63 1779.03 1186.63L1767.12 1165.66Z" fill="white" stroke="#263238" stroke-width="3.26941" stroke-miterlimit="10"/>
<path d="M1767.13 995.733L1862.4 1126.51L1779.03 1186.49L1767.13 1165.66L1792.64 1116.52L1752.65 1084.03L1767.13 995.733Z" fill="#92E3A9" stroke="#263238" stroke-width="3.26941" stroke-miterlimit="10"/>
<path d="M1773.93 1151.5L1788.37 1177.33" stroke="#263238" stroke-width="3.26941" stroke-linecap="round" stroke-linejoin="round"/>
<path d="M1792.64 1116.52L1803.71 1088.2" stroke="#263238" stroke-width="3.26941" stroke-linecap="round" stroke-linejoin="round"/>
<path d="M393.801 1638.35C484.853 1638.35 558.665 1622.04 558.665 1601.91C558.665 1581.78 484.853 1565.47 393.801 1565.47C302.749 1565.47 228.938 1581.78 228.938 1601.91C228.938 1622.04 302.749 1638.35 393.801 1638.35Z" fill="#92E3A9"/>
<path opacity="0.5" d="M393.801 1638.35C484.853 1638.35 558.665 1622.04 558.665 1601.91C558.665 1581.78 484.853 1565.47 393.801 1565.47C302.749 1565.47 228.938 1581.78 228.938 1601.91C228.938 1622.04 302.749 1638.35 393.801 1638.35Z" fill="white"/>
<path d="M308.142 1564.63C308.142 1564.63 268.158 1587.13 268.158 1597.95C268.158 1608.78 292.836 1602.12 309.01 1594.48C325.184 1586.85 337.922 1581.16 337.922 1566.16C337.922 1551.17 308.142 1564.63 308.142 1564.63Z" fill="#92E3A9" stroke="#263238" stroke-width="3.26941" stroke-miterlimit="10"/>
<path d="M499.662 1564.63C499.662 1564.63 539.646 1587.13 539.646 1597.95C539.646 1608.78 515.003 1602.12 498.829 1594.48C482.655 1586.85 469.883 1581.16 469.883 1566.16C469.883 1551.17 499.662 1564.63 499.662 1564.63Z" fill="#92E3A9" stroke="#263238" stroke-width="3.26941" stroke-miterlimit="10"/>
<path d="M324.318 1196.49L307.311 1568.94C309.66 1570.88 312.379 1572.32 315.302 1573.18C318.225 1574.04 321.292 1574.3 324.318 1573.94C329.606 1573.15 334.436 1570.49 337.923 1566.44L395.782 1262.43H407.686L468.946 1572.27C472.608 1574.3 476.675 1575.48 480.851 1575.74C486.821 1575.74 496.158 1568.24 496.158 1568.24L476.582 1196.87L324.318 1196.49Z" fill="#263238" stroke="#263238" stroke-width="3.26941" stroke-miterlimit="10"/>
<path d="M383.875 970.777L306.441 1002.4L326.85 1182.32H474.915L502.126 995.733L417.889 969.111L383.875 970.777Z" fill="#92E3A9" stroke="#263238" stroke-width="3.26941" stroke-miterlimit="10"/>
<path d="M476.616 1178.99H324.316V1196.49H476.616V1178.99Z" fill="#263238" stroke="#263238" stroke-width="3.26941" stroke-miterlimit="10"/>
<path d="M321.747 1193.15L295.368 1203.98C294.936 1211.52 295.508 1219.08 297.069 1226.47C299.638 1236.47 303.039 1258.13 305.607 1262.29C308.176 1266.46 320.914 1274.79 322.614 1272.29C324.315 1269.79 332.819 1196.48 332.819 1196.48L321.747 1193.15Z" fill="#263238" stroke="#263238" stroke-width="3.26941" stroke-miterlimit="10"/>
<path d="M381.271 932.009V962.378L403.415 985.355L426.01 961.927V931.558L381.271 932.009Z" fill="white" stroke="#263238" stroke-width="3.26941" stroke-miterlimit="10"/>
<path d="M365.757 903.826C365.757 903.826 361.766 894.698 359.093 900.355C356.421 906.013 359.545 914.655 363.536 918.126C366.484 920.257 370.132 921.187 373.74 920.729L371.519 907.713L365.757 903.826Z" fill="white" stroke="#263238" stroke-width="3.26941" stroke-miterlimit="10"/>
<path d="M437.95 903.826C437.95 903.826 441.942 894.698 444.614 900.355C447.287 906.013 444.163 914.655 440.171 918.126C437.236 920.255 433.599 921.185 430.002 920.729L432.189 907.713L437.95 903.826Z" fill="white" stroke="#263238" stroke-width="3.26941" stroke-miterlimit="10"/>
<path d="M373.289 843.538C373.289 843.538 354.686 851.347 354.686 864.362C354.686 877.378 357.323 892.129 361.627 897.786C365.931 903.444 369.61 907.331 369.61 907.331L370.478 888.658L383.32 866.549C383.32 866.549 404.596 879.981 415.217 879.981C421.153 880.034 427.085 879.604 432.952 878.697L436.944 900.806L442.705 884.771V870.02C442.705 870.02 453.326 860.024 451.105 853.534C448.883 847.043 412.926 826.635 390.851 831.841C368.777 837.047 373.289 843.538 373.289 843.538Z" fill="#263238" stroke="#263238" stroke-width="3.26941" stroke-miterlimit="10"/>
<path d="M364.299 887.339C364.299 887.339 369.644 919.861 374.052 928.538C379.964 938.185 387.196 946.958 395.536 954.604C398.625 956.756 410.148 955.02 414.591 955.02C419.034 955.02 431.945 928.989 434.097 924.234C436.249 919.479 437.568 878.697 437.568 878.697L433.715 871.304C433.715 871.304 414.66 876.094 399.597 870.02C391.42 867.091 384.106 862.164 378.321 855.686C378.321 855.686 377.002 870.437 371.692 879.114C366.381 887.791 364.299 887.339 364.299 887.339Z" fill="white" stroke="#263238" stroke-width="3.26941" stroke-miterlimit="10"/>
<path d="M398.521 890.81C393.161 888.01 387.214 886.523 381.167 886.472C375.977 886.266 370.813 887.302 366.104 889.492C366.104 889.492 366.104 904.242 370.963 909.9C375.822 915.557 390.017 913.787 394.009 909.032C398 904.277 398.521 890.81 398.521 890.81Z" fill="#263238" stroke="#263238" stroke-width="3.26941" stroke-miterlimit="10"/>
<path d="M404.734 890.81C410.094 888.01 416.042 886.523 422.088 886.472C427.278 886.266 432.442 887.302 437.152 889.492C437.152 889.492 437.152 904.242 432.258 909.9C427.364 915.557 413.238 913.787 409.246 909.032C405.255 904.277 404.734 890.81 404.734 890.81Z" fill="#263238" stroke="#263238" stroke-width="3.26941" stroke-miterlimit="10"/>
<path d="M398.52 890.81H404.732" stroke="#263238" stroke-width="3.26941" stroke-miterlimit="10"/>
<path d="M392.378 996.565L401.714 1011.56L386.408 1140.67L405.151 1168.16L421.29 1138.17L408.552 1009.89L419.589 992.435L403.415 985.354L392.378 996.565Z" fill="#263238" stroke="#263238" stroke-width="3.26941" stroke-miterlimit="10"/>
<path d="M403.415 985.356L390.99 1006.63L368.846 977.13L381.271 962.379L403.415 985.356Z" fill="#92E3A9" stroke="#263238" stroke-width="3.26941" stroke-miterlimit="10"/>
<path d="M403.416 985.356L418.479 1008.78L436.632 975.395L426.011 961.928L403.416 985.356Z" fill="#92E3A9" stroke="#263238" stroke-width="3.26941" stroke-miterlimit="10"/>
<path d="M306.441 1002.4L212 1126.51L295.369 1186.49L307.309 1165.66L281.763 1116.52L316.645 1084.86L306.441 1002.4Z" fill="#92E3A9" stroke="#263238" stroke-width="3.26941" stroke-miterlimit="10"/>
<path d="M307.309 1165.66L335.353 1164.83L356.629 1183.99C356.595 1186.44 355.698 1188.8 354.096 1190.65C351.527 1193.15 344.724 1191.49 344.724 1191.49C344.724 1191.49 339.622 1203.98 330.251 1203.98C320.88 1203.98 295.543 1186.63 295.543 1186.63L307.309 1165.66Z" fill="white" stroke="#263238" stroke-width="3.26941" stroke-miterlimit="10"/>
<path d="M300.507 1151.5L286.033 1177.33" stroke="#263238" stroke-width="3.26941" stroke-linecap="round" stroke-linejoin="round"/>
<path d="M281.764 1116.52L270.727 1088.2" stroke="#263238" stroke-width="3.26941" stroke-linecap="round" stroke-linejoin="round"/>
<path d="M502.126 995.733L597.4 1126.51L514.031 1186.49L502.126 1165.66L527.636 1116.52L487.652 1084.03L502.126 995.733Z" fill="#92E3A9" stroke="#263238" stroke-width="3.26941" stroke-miterlimit="10"/>
<path d="M502.125 1165.66L474.046 1164.83L452.77 1183.99C452.813 1186.44 453.723 1188.8 455.338 1190.65C457.872 1193.15 464.674 1191.49 464.674 1191.49C464.674 1191.49 469.777 1203.98 479.148 1203.98C488.519 1203.98 513.856 1186.63 513.856 1186.63L502.125 1165.66Z" fill="white" stroke="#263238" stroke-width="3.26941" stroke-miterlimit="10"/>
<path d="M508.93 1151.5L523.403 1177.33" stroke="#263238" stroke-width="3.26941" stroke-linecap="round" stroke-linejoin="round"/>
<path d="M527.637 1116.52L538.709 1088.2" stroke="#263238" stroke-width="3.26941" stroke-linecap="round" stroke-linejoin="round"/>
<path d="M373.358 1035.72H321.191V1053.49L347.292 1063.48L373.358 1052.38V1035.72Z" fill="#92E3A9" stroke="#263238" stroke-width="3.26941" stroke-miterlimit="10"/>
<path d="M477.725 1035.72H425.559V1053.49L451.659 1063.48L477.725 1052.38V1035.72Z" fill="#92E3A9" stroke="#263238" stroke-width="3.26941" stroke-miterlimit="10"/>
<path d="M1022.6 927C1006.72 938 979.298 948.471 943 972.76C943 972.76 945.276 1054.83 1022.6 1099.69C1099.93 1054.83 1102.21 972.76 1102.21 972.76C1065.91 948.471 1038.57 938 1022.6 927Z" fill="#263238" stroke="#263238" stroke-width="3.71746" stroke-linecap="round" stroke-linejoin="round"/>
<path d="M1102.58 972.53C1066.28 948.253 1038.94 937.77 1022.97 926.77V1099.46C1100.3 1054.6 1102.58 972.53 1102.58 972.53Z" fill="#92E3A9" stroke="#263238" stroke-width="3.71746" stroke-linecap="round" stroke-linejoin="round"/>
<path d="M1053.13 1009.52H993.808C992.52 1009.52 991.283 1009.01 990.363 1008.11C989.442 1007.21 988.912 1005.98 988.887 1004.69V977.328C988.887 958.662 1004.4 943.466 1023.47 943.466C1042.55 943.466 1058.07 958.662 1058.07 977.328V1004.69C1058.05 1005.99 1057.52 1007.22 1056.59 1008.12C1055.66 1009.02 1054.42 1009.52 1053.13 1009.52ZM998.73 999.919H1048.19V977.328C1048.19 970.768 1045.59 964.478 1040.95 959.84C1036.31 955.201 1030.02 952.596 1023.46 952.596C1016.9 952.596 1010.61 955.201 1005.97 959.84C1001.34 964.478 998.73 970.768 998.73 977.328V999.919Z" fill="white" stroke="#263238" stroke-width="3.71746" stroke-linecap="round" stroke-linejoin="round"/>
<path d="M1060.73 996.326H985.207V1058.81H1060.73V996.326Z" fill="#92E3A9" stroke="#263238" stroke-width="3.71746" stroke-linecap="round" stroke-linejoin="round"/>
<path d="M1030.83 1022.27C1030.75 1020.15 1029.85 1018.14 1028.31 1016.66C1026.78 1015.19 1024.73 1014.36 1022.61 1014.36C1020.48 1014.36 1018.43 1015.19 1016.9 1016.66C1015.37 1018.14 1014.46 1020.15 1014.38 1022.27C1014.39 1023.74 1014.79 1025.17 1015.55 1026.42C1016.32 1027.67 1017.4 1028.69 1018.7 1029.36L1017.32 1043.55H1027.89L1026.51 1029.36C1027.81 1028.69 1028.9 1027.67 1029.66 1026.42C1030.42 1025.17 1030.83 1023.74 1030.83 1022.27V1022.27Z" fill="#263238" stroke="#263238" stroke-width="3.71746" stroke-linecap="round" stroke-linejoin="round"/>
</svg>
