<?xml version="1.0" encoding="UTF-8"?>
<svg width="153px" height="54px" viewBox="0 0 153 54" version="1.1" xmlns="http://www.w3.org/2000/svg" xmlns:xlink="http://www.w3.org/1999/xlink">
    <!-- Generator: Sketch 48.2 (47327) - http://www.bohemiancoding.com/sketch -->
    <title>logo_sura</title>
    <desc>Created with Sketch.</desc>
    <defs></defs>
    <g id="01_home" stroke="none" stroke-width="1" fill="none" fill-rule="evenodd" transform="translate(-316.000000, -77.000000)">
        <g id="logo_sura" transform="translate(316.000000, 77.000000)">
            <g id="XMLID_23_" transform="translate(109.000000, 0.000000)" fill="#00AEC7">
                <g id="XMLID_24_">
                    <g id="XMLID_25_">
                        <g id="XMLID_26_">
                            <g id="XMLID_27_">
                                <path d="M23.388,45.4446667 C23.4393333,45.458 23.4746667,45.502 23.4686667,45.6066667 C22.8986667,46.3553333 21.98,47.208 20.7606667,48.0726667 C19.5706667,48.9246667 18.1726667,49.7513333 16.7,50.4613333 C15.158,51.204 13.7973333,51.8346667 12.3693333,52.2153333 C10.7673333,52.6346667 9.37066667,52.7893333 8.21466667,52.6593333 C7.274,52.5586667 6.50933333,52.2846667 5.92,51.8133333 C5.89133333,51.7873333 5.87333333,51.7373333 5.87333333,51.69 C5.89133333,51.6206667 5.94933333,51.5753333 6.01733333,51.5526667 C9.608,50.9646667 12.9093333,50.058 15.976,48.9933333 C18.9986667,47.9473333 21.5226667,46.722 23.388,45.4446667" id="XMLID_37_"></path>
                                <path d="M23.0833333,43.7053333 C21.1366667,44.878 17.1546667,46.594 13.6793333,47.59 C9.532,48.786 6.20866667,49.3693333 3.97333333,49.06 C2.02266667,48.772 1.04933333,47.864 0.746,47.5253333 C0.696666667,47.4886667 0.648666667,47.4433333 0.668666667,47.3813333 C0.682666667,47.3113333 0.733333333,47.2573333 0.822,47.242 L1.57133333,47.1813333 C3.23266667,47.0653333 6.2,46.98 9.66066667,46.4633333 C13.6633333,45.866 20.0906667,44.6946667 23.0293333,43.5273333 C23.096,43.5426667 23.1373333,43.5973333 23.0833333,43.7053333" id="XMLID_36_"></path>
                                <path d="M22.766,48.8333333 C22.8186667,48.8366667 22.8793333,48.878 22.8513333,48.982 C22.1273333,50.718 21.3166667,52.0253333 19.708,52.836 C16.8906667,54.2593333 15.4033333,53.4613333 15.2106667,53.3653333 C15.1606667,53.3373333 15.1146667,53.2713333 15.1146667,53.2106667 C15.1266667,53.1453333 15.1753333,53.0913333 15.2433333,53.0833333 C16.4686667,52.7066667 20.168,51.3166667 22.674,48.852 C22.6973333,48.8366667 22.74,48.8293333 22.766,48.8333333" id="XMLID_35_"></path>
                                <path d="M41.3366667,22.1153333 C41.3893333,22.1386667 41.4126667,22.18 41.4126667,22.2193333 C41.4006667,22.2733333 41.3553333,22.308 41.2673333,22.3013333 C40.4246667,22.0613333 38.628,21.5713333 36.3626667,20.962 C31.1753333,19.5646667 11.592,14.4086667 11.264,14.32 L11.1753333,14.292 C10.002,13.9233333 9.03866667,13.348 8.29333333,12.5486667 C8.07533333,12.3253333 7.874,12.0786667 7.688,11.7886667 C7.03333333,10.794 6.86866667,9.33933333 6.84066667,9.06733333 C6.83666667,9.04 6.84533333,8.978 6.87733333,8.94266667 C6.91733333,8.90266667 6.97133333,8.89866667 7.07866667,8.91 L10.2786667,10.148 C17.8806667,13.0586667 38.0613333,20.8 41.3366667,22.1153333" id="XMLID_34_"></path>
                                <path d="M38.0473333,19.0273333 C38.078,19.1613333 38.0233333,19.196 37.908,19.1726667 C36.766,18.6 34.1546667,17.3673333 31.5386667,16.082 C29.3313333,14.9833333 14.2066667,7.938 13.1806667,7.41866667 L11.376,6.504 C11.0986667,6.374 10.8606667,6.21933333 10.6193333,6.07533333 C9.90333333,5.642 9.53133333,5.32866667 9.13866667,4.84666667 C8.826,4.43666667 8.574,3.928 8.37333333,3.45 C7.936,2.36866667 7.958,0.949333333 7.978,0.688666667 C7.978,0.651333333 7.99666667,0.600666667 8.05533333,0.578 C8.09466667,0.548666667 8.14066667,0.540666667 8.246,0.578 L10.126,1.71666667 L11.1406667,2.33866667 L16.6813333,5.68933333 C24.4106667,10.4626667 35.232,17.274 38.0473333,19.0273333" id="XMLID_33_"></path>
                                <path d="M43.62,24.1993333 C43.674,24.206 43.7106667,24.2566667 43.7106667,24.3073333 C43.7106667,24.36 43.66,24.3913333 43.5853333,24.3913333 C40.6026667,24.1826667 13.8066667,22.428 13.8066667,22.428 C13.5693333,22.406 13.36,22.38 13.1133333,22.3053333 C10.9833333,21.6453333 9.74866667,20.0106667 9.23866667,18.3746667 C9.22266667,18.3113333 9.20666667,18.2466667 9.23133333,18.1886667 C9.27933333,18.144 9.344,18.1086667 9.402,18.116 C9.42,18.116 41.0206667,23.7206667 43.62,24.1993333" id="XMLID_32_"></path>
                                <path d="M42.3026667,26.0046667 C42.36,26.008 42.4086667,26.0653333 42.4086667,26.1193333 C42.3946667,26.1593333 42.36,26.1966667 42.3093333,26.2073333 C41.2086667,26.3833333 20.8393333,29.2506667 20.7093333,29.2673333 C20.5773333,29.2873333 20.4646667,29.3046667 20.3486667,29.3046667 C20.23,29.3046667 20.1173333,29.3046667 20.0026667,29.2926667 C19.03,29.1893333 18.0966667,28.7233333 17.236,27.8293333 C16.8053333,27.3726667 16.404,26.6426667 16.3146667,26.3533333 C16.2786667,26.308 16.2786667,26.2633333 16.31,26.2126667 C16.344,26.166 16.398,26.1426667 16.4413333,26.138 C16.4413333,26.138 23.2813333,26.0933333 27.5893333,26.0806667 C30.7953333,26.074 34.2346667,26.062 37.016,26.0493333 C39.4306667,26.04 41.3593333,26.0326667 42.3026667,26.0046667" id="XMLID_31_"></path>
                                <path d="M40.7813333,28.1013333 C40.8193333,28.1013333 40.8973333,28.0893333 40.91,28.1326667 C40.916,28.1666667 40.9893333,28.2206667 40.876,28.284 C40.22,28.7273333 25.5926667,34.8253333 25.4446667,34.876 C24.6446667,35.1566667 23.7466667,35.3 23.09,34.1973333 C22.8186667,33.7346667 22.578,33.3633333 22.47,33.19 C22.4233333,33.124 22.2646667,32.9466667 22.6973333,32.84 C22.6973333,32.84 26.8166667,31.7166667 30.4806667,30.772 C34.7206667,29.696 39.5213333,28.458 40.7813333,28.1013333" id="XMLID_30_"></path>
                                <path d="M34.3586667,38.2406667 C34.4173333,38.2513333 34.458,38.3053333 34.4313333,38.414 C33.0193333,40.06 27.812,45.8186667 25.46,48.35 C25.2153333,48.602 25.0946667,48.4953333 25.1786667,48.2366667 C25.1786667,48.2366667 25.6213333,47.104 25.8186667,46.2366667 C25.938,45.714 26.0473333,45.2846667 26.3386667,45.0513333 C29.3886667,42.4553333 32.334,39.8793333 34.2633333,38.2766667 L34.3586667,38.2406667 Z" id="XMLID_29_"></path>
                                <path d="M39.1426667,30.946 C39.212,30.9646667 39.2466667,31.008 39.212,31.1313333 C37.7886667,32.3293333 31.2573333,37.824 27.736,40.7233333 L27.618,40.8206667 C26.594,41.604 25.9066667,41.7893333 25.7866667,40.0966667 C25.748,39.6946667 25.6973333,39.3553333 25.6973333,39.3553333 C25.6326667,39.004 25.7406667,39.0073333 25.8733333,38.9233333 C27.016,38.21 29.2206667,36.9793333 30.97,35.9186667 C34.0886667,34.0433333 37.742,31.8066667 39.1426667,30.946" id="XMLID_28_"></path>
                            </g>
                        </g>
                    </g>
                </g>
            </g>
            <path d="M15.6062432,26.6196743 L9.13823612,24.8378179 C7.35986895,24.3444635 5.73349325,23.5667917 5.73349325,21.3876976 C5.73349325,19.113831 7.10141649,18.0041196 9.97921095,18.0041196 L15.7327912,18.0041196 C18.2751331,18.0041196 21.3075973,17.1538562 21.314293,13 L10.4860724,13.0107543 C3.81652593,13.0168036 0,16.3970209 0,21.2418421 C0,25.7519351 2.85235096,28.2845775 7.9390435,29.6429826 L13.5674149,31.1391774 C15.8954957,31.7696494 16.7284358,33.2308927 16.7284358,34.729776 C16.7284358,37.0150691 15.2915472,38.3936385 11.7977521,38.4151471 L0.990957609,38.4991652 L0.990957609,43.4098567 L11.979874,43.4098567 C18.6440639,43.4098567 22.4659464,39.8172416 22.4659464,35.086685 C22.4659464,30.3252098 20.5971878,27.9821123 15.6062432,26.6196743 Z M68.6586319,13 C62.1042508,13 57.5933849,16.80098 57.5933849,24.6314694 L57.5933849,43.4098567 L62.8702342,43.4098567 L62.8702342,24.4493181 C62.8702342,20.4204809 65.0336018,18.0041196 69.111928,18.0041196 L70.6813906,18.0041196 C75.3114392,18.0041196 76.06604,15.6018733 76.06604,13 L68.6586319,13 Z M45.1454843,13 L45.1642322,34.0872054 C45.1642322,37.1663017 42.6312642,38.7095466 39.2847736,38.7095466 C35.7621871,38.7095466 33.4575411,37.1663017 33.4575411,34.0872054 L33.4120106,18.3086013 C33.4066541,13.8126233 30.6045205,13 28.1378396,13 L28.1378396,35.383101 C28.1378396,41.0371848 33.2010973,43.8091108 39.1140342,43.8091108 C44.8508753,43.8091108 50.4651858,41.0371848 50.4651858,35.383101 L50.4598293,18.9975499 C50.4604989,14.5721472 48.8039927,13 45.1454843,13 Z M91.2825958,13 L89.9521683,13 C82.9197171,13.0107543 76.3064142,18.2111403 76.0171617,28.3390213 C75.7607179,37.5514408 80.5434275,44 88.6270973,44 C95.2732089,44 97.6066463,39.3487565 97.6066463,39.3487565 C97.9829423,42.4607879 99.664892,43.4091845 103,43.4091845 L103,17.3286139 L103,13 L91.2825958,13 Z M97.2886024,30.9173695 C97.2886024,35.1290302 94.8861998,39.1316537 89.6609071,39.1316537 C84.9913541,39.1316537 81.6448635,35.98131 81.8584551,28.4001865 C82.0673596,21.1235446 85.5571374,17.9241343 90.1650903,17.9241343 C90.5273254,17.9241343 90.8674649,17.908675 91.1955523,17.8804449 L91.1955523,17.8864942 L97.2886024,17.8864942 L97.2886024,30.9173695 Z" id="XMLID_16_" fill="#0033A0" fill-rule="nonzero"></path>
        </g>
    </g>
</svg>